<svg version="1.1" id="Layer_1" xmlns="http://www.w3.org/2000/svg" xmlns:xlink="http://www.w3.org/1999/xlink" x="0px" y="0px"
	 width="100%" viewBox="0 0 225 225" enable-background="new 0 0 225 225" xml:space="preserve">
<path fill="#000000" opacity="1.000000" stroke="none" 
	d="
M150.000000,226.000000 
	C100.000000,226.000000 50.500008,226.000000 1.000007,226.000000 
	C1.000004,151.000000 1.000004,76.000015 1.000002,1.000017 
	C75.999992,1.000011 150.999985,1.000011 225.999969,1.000006 
	C225.999985,75.999985 225.999985,150.999969 226.000000,225.999969 
	C200.833328,226.000000 175.666672,226.000000 150.000000,226.000000 
M172.000000,157.000000 
	C172.000000,157.000000 172.029877,157.040894 172.651703,156.795532 
	C174.567657,154.729950 176.483597,152.664352 178.535416,150.529861 
	C178.535416,150.529861 178.604034,150.393860 179.152130,150.141159 
	C181.383881,147.771835 183.615646,145.402527 185.987900,142.101059 
	C185.992447,124.169655 186.022186,106.238167 185.955399,88.307030 
	C185.949860,86.816315 185.292007,85.328041 184.825821,83.288124 
	C184.251587,82.843750 183.677368,82.399376 183.070969,81.947792 
	C183.070969,81.947792 183.047791,81.924316 182.929993,81.380455 
	C182.602386,81.296463 182.274780,81.212471 181.325470,80.793312 
	C176.200790,75.359268 171.188736,69.813255 165.924149,64.518318 
	C158.644379,57.196602 151.174454,50.063972 143.794586,42.435085 
	C143.633240,42.160782 143.395172,42.047802 142.730347,41.263584 
	C123.766739,41.175888 104.803139,41.077641 85.839439,41.045601 
	C85.194588,41.044514 84.548607,41.708946 83.276344,42.261211 
	C76.213692,49.310020 69.104378,56.312862 62.102135,63.421185 
	C55.716488,69.903572 49.446918,76.500313 42.914993,83.557472 
	C42.646595,83.803947 42.378201,84.050423 41.225086,84.384270 
	C41.150314,103.622353 41.065575,122.860428 41.042824,142.098572 
	C41.042038,142.762497 41.661251,143.427124 41.882175,144.170944 
	C41.882175,144.170944 41.946579,144.289780 42.307564,144.858444 
	C43.380177,145.564667 44.625893,146.103165 45.498180,147.003494 
	C52.857868,154.599609 60.107582,162.302567 67.494751,169.871521 
	C69.061714,171.477036 71.055481,172.665985 72.943123,174.747711 
	C76.295357,177.832077 79.647591,180.916443 83.043755,184.524704 
	C83.089638,184.693817 83.135521,184.862946 83.457558,185.848068 
	C103.395714,185.782898 123.333878,185.717728 143.807129,185.360550 
	C147.906754,181.035385 151.980301,176.685135 156.113190,172.392014 
	C160.398636,167.940414 164.741592,163.544128 169.704102,159.019608 
	C170.483109,158.356277 171.262100,157.692947 172.000000,157.000000 
z"/>
<path fill="#0255D0" opacity="1.000000" stroke="none" 
	d="
M169.059387,159.123657 
	C164.741592,163.544128 160.398636,167.940414 156.113190,172.392014 
	C151.980301,176.685135 147.906754,181.035385 143.462311,185.412872 
	C143.117493,185.465195 142.987030,185.260208 143.051361,184.769043 
	C142.997910,170.181183 142.880142,156.084488 142.896729,141.536835 
	C142.952194,122.710648 142.873291,104.335449 142.847778,85.602722 
	C142.826355,84.771484 142.751541,84.297768 142.777863,83.376923 
	C142.914764,71.489151 142.914658,60.048168 143.021362,48.608189 
	C143.039276,46.686703 143.519409,44.769527 143.785965,42.850361 
	C151.174454,50.063972 158.644379,57.196602 165.924149,64.518318 
	C171.188736,69.813255 176.200790,75.359268 181.784149,81.140198 
	C182.465576,81.716728 182.733902,81.862473 183.047791,81.924316 
	C183.047791,81.924316 183.070969,81.947792 183.063477,82.375763 
	C183.370300,85.920876 183.940018,89.036674 183.956390,92.155373 
	C184.045364,109.105553 183.997849,126.056450 183.792297,143.267090 
	C181.926193,145.816025 180.265121,148.104950 178.604034,150.393860 
	C178.604034,150.393860 178.535416,150.529861 178.113586,150.399323 
	C175.804459,152.526154 173.917160,154.783524 172.029877,157.040894 
	C172.029877,157.040894 172.000000,157.000000 171.659119,156.999039 
	C170.565277,157.706604 169.812332,158.415131 169.059387,159.123657 
z"/>
<path fill="#82C244" opacity="1.000000" stroke="none" 
	d="
M143.790283,42.642723 
	C143.519409,44.769527 143.039276,46.686703 143.021362,48.608189 
	C142.914658,60.048168 142.914764,71.489151 142.337585,83.448990 
	C122.526985,84.025345 103.257782,84.082512 83.521454,84.111275 
	C71.488274,84.061310 59.921852,84.079788 48.356544,83.975281 
	C46.610435,83.959503 44.869511,83.370499 43.126186,83.046654 
	C49.446918,76.500313 55.716488,69.903572 62.102135,63.421185 
	C69.104378,56.312862 76.213692,49.310020 84.066010,42.170601 
	C104.263908,42.085373 123.672150,42.090759 143.080383,42.096149 
	C143.395172,42.047802 143.633240,42.160782 143.790283,42.642723 
z"/>
<path fill="#0255D1" opacity="1.000000" stroke="none" 
	d="
M72.852608,174.046860 
	C71.055481,172.665985 69.061714,171.477036 67.494751,169.871521 
	C60.107582,162.302567 52.857868,154.599609 45.498180,147.003494 
	C44.625893,146.103165 43.380177,145.564667 42.481087,144.413849 
	C42.932365,142.649994 43.456985,141.329483 43.450371,140.011627 
	C43.367855,123.567543 43.137814,107.123817 43.144241,90.680077 
	C43.145210,88.206360 43.994274,85.865013 47.551952,85.915604 
	C58.192444,86.066925 68.836761,86.024574 79.478806,85.948608 
	C82.919456,85.924042 83.141411,87.666908 82.775185,90.461166 
	C82.582756,91.929321 83.371628,93.526093 83.767380,95.385788 
	C83.783760,96.138016 83.750145,96.569237 83.498474,97.308281 
	C82.873352,99.883484 82.138962,102.147560 82.116028,104.418808 
	C82.018066,114.118042 82.069954,123.820190 82.200104,133.519501 
	C82.242607,136.686432 82.688583,139.847961 82.943108,143.479401 
	C82.942619,155.947067 82.949051,167.947281 82.583405,179.965118 
	C79.091759,178.004105 75.972183,176.025482 72.852608,174.046860 
z"/>
<path fill="#1252A1" opacity="1.000000" stroke="none" 
	d="
M83.717377,95.064781 
	C83.371628,93.526093 82.582756,91.929321 82.775185,90.461166 
	C83.141411,87.666908 82.919456,85.924042 79.478806,85.948608 
	C68.836761,86.024574 58.192444,86.066925 47.551952,85.915604 
	C43.994274,85.865013 43.145210,88.206360 43.144241,90.680077 
	C43.137814,107.123817 43.367855,123.567543 43.450371,140.011627 
	C43.456985,141.329483 42.932365,142.649994 42.300594,144.129517 
	C41.946579,144.289780 41.882175,144.170944 41.940811,143.655548 
	C42.036228,123.525734 42.073017,103.911316 42.109806,84.296898 
	C42.378201,84.050423 42.646595,83.803947 43.020592,83.302063 
	C44.869511,83.370499 46.610435,83.959503 48.356544,83.975281 
	C59.921852,84.079788 71.488274,84.061310 83.588074,84.348511 
	C84.349228,84.866013 84.624123,85.044960 84.951431,85.584587 
	C84.543373,89.033722 84.130371,92.049248 83.717377,95.064781 
z"/>
<path fill="#104EB1" opacity="1.000000" stroke="none" 
	d="
M183.997314,143.007095 
	C183.997849,126.056450 184.045364,109.105553 183.956390,92.155373 
	C183.940018,89.036674 183.370300,85.920876 183.079559,82.379372 
	C183.677368,82.399376 184.251587,82.843750 184.907501,84.044617 
	C185.008728,104.195549 185.028275,123.589981 184.785187,142.989868 
	C184.347473,142.999237 184.172394,143.003174 183.997314,143.007095 
z"/>
<path fill="#A9CAFF" opacity="1.000000" stroke="none" 
	d="
M41.667446,84.340584 
	C42.073017,103.911316 42.036228,123.525734 41.995464,143.615784 
	C41.661251,143.427124 41.042038,142.762497 41.042824,142.098572 
	C41.065575,122.860428 41.150314,103.622353 41.667446,84.340584 
z"/>
<path fill="#CCE4AF" opacity="1.000000" stroke="none" 
	d="
M142.987030,185.260193 
	C142.987030,185.260208 143.117493,185.465195 143.194763,185.558868 
	C123.333878,185.717728 103.395714,185.782898 83.617188,185.428497 
	C84.172943,184.973038 84.569061,184.937164 85.436546,184.947968 
	C104.934280,185.083160 123.960655,185.171677 142.987030,185.260193 
z"/>
<path fill="#9CB7ED" opacity="1.000000" stroke="none" 
	d="
M185.047821,142.984421 
	C185.028275,123.589981 185.008728,104.195549 184.963211,84.319870 
	C185.292007,85.328041 185.949860,86.816315 185.955399,88.307030 
	C186.022186,106.238167 185.992447,124.169655 185.717468,142.561584 
	C185.447037,143.022125 185.047821,142.984421 185.047821,142.984421 
z"/>
<path fill="#DFFEBE" opacity="1.000000" stroke="none" 
	d="
M142.905365,41.679867 
	C123.672150,42.090759 104.263908,42.085373 84.379417,42.071579 
	C84.548607,41.708946 85.194588,41.044514 85.839439,41.045601 
	C104.803139,41.077641 123.766739,41.175888 142.905365,41.679867 
z"/>
<path fill="#72B69E" opacity="1.000000" stroke="none" 
	d="
M84.965187,184.901291 
	C84.569061,184.937164 84.172943,184.973038 83.479111,185.020477 
	C83.135521,184.862946 83.089638,184.693817 83.033691,184.270569 
	C83.023636,184.016434 83.045036,183.997574 83.358444,183.716949 
	C83.734810,169.968430 83.797768,156.500519 83.920723,142.773804 
	C84.024033,142.343262 84.067345,142.171539 84.364555,142.009995 
	C84.781128,142.067444 84.943802,142.114716 85.104767,142.487991 
	C85.168839,143.243988 85.234612,143.674011 85.240631,144.561951 
	C85.193306,155.688370 85.205742,166.356857 85.154366,177.391266 
	C85.131668,178.495911 85.172775,179.234665 85.184570,180.350494 
	C85.165207,181.483658 85.175156,182.239761 85.127380,183.310974 
	C85.034843,184.051163 85.000015,184.476227 84.965187,184.901291 
z"/>
<path fill="#1252A1" opacity="1.000000" stroke="none" 
	d="
M72.897865,174.397278 
	C75.972183,176.025482 79.091759,178.004105 82.606888,180.371185 
	C83.016640,181.838959 83.030838,182.918259 83.045036,183.997574 
	C83.045036,183.997574 83.023636,184.016434 83.011734,184.008636 
	C79.647591,180.916443 76.295357,177.832077 72.897865,174.397278 
z"/>
<path fill="#1F58B4" opacity="1.000000" stroke="none" 
	d="
M184.785187,142.989868 
	C185.047821,142.984421 185.447037,143.022125 185.647217,143.027679 
	C183.615646,145.402527 181.383881,147.771835 178.878082,150.267517 
	C180.265121,148.104950 181.926193,145.816025 183.792297,143.267090 
	C184.172394,143.003174 184.347473,142.999237 184.785187,142.989868 
z"/>
<path fill="#1F58B4" opacity="1.000000" stroke="none" 
	d="
M172.340790,156.918213 
	C173.917160,154.783524 175.804459,152.526154 178.045639,150.433777 
	C176.483597,152.664352 174.567657,154.729950 172.340790,156.918213 
z"/>
<path fill="#1F58B4" opacity="1.000000" stroke="none" 
	d="
M169.381744,159.071625 
	C169.812332,158.415131 170.565277,157.706604 171.679657,157.013855 
	C171.262100,157.692947 170.483109,158.356277 169.381744,159.071625 
z"/>
<path fill="#104EB1" opacity="1.000000" stroke="none" 
	d="
M182.988892,81.652390 
	C182.733902,81.862473 182.465576,81.716728 182.095001,81.307785 
	C182.274780,81.212471 182.602386,81.296463 182.988892,81.652390 
z"/>
<path fill="#000000" opacity="1.000000" stroke="none" 
	d="
M85.106476,142.162003 
	C84.943802,142.114716 84.781128,142.067444 84.302155,141.544220 
	C83.896080,126.378983 83.806305,111.689720 83.716530,97.000450 
	C83.750145,96.569237 83.783760,96.138016 83.767372,95.385788 
	C84.130371,92.049248 84.543373,89.033722 85.422562,85.513260 
	C103.299805,85.007408 120.710960,84.982231 138.121780,85.047073 
	C139.680420,85.052879 141.236908,85.642029 142.794373,85.960251 
	C142.873291,104.335449 142.952194,122.710648 142.493347,141.570465 
	C137.321533,142.437012 132.687500,142.818924 127.790268,143.123123 
	C127.347305,143.011520 127.167526,142.977631 126.806564,142.546783 
	C113.086472,142.152313 99.547554,142.154785 85.782791,142.100723 
	C85.556946,142.044205 85.106476,142.162003 85.106476,142.162003 
z"/>
<path fill="#7EB95A" opacity="1.000000" stroke="none" 
	d="
M128.053452,143.200851 
	C132.687500,142.818924 137.321533,142.437012 142.358978,142.021454 
	C142.880142,156.084488 142.997910,170.181183 143.051361,184.769028 
	C123.960655,185.171677 104.934280,185.083160 85.436546,184.947968 
	C85.000015,184.476227 85.034843,184.051163 85.482483,183.495560 
	C86.361839,183.537643 86.827835,183.859634 87.295006,183.861359 
	C104.439095,183.924744 121.584076,184.028107 138.725616,183.833389 
	C139.823761,183.820892 141.805588,181.491470 141.835770,180.203812 
	C142.085220,169.555450 141.920563,158.898209 141.996796,148.244492 
	C142.020477,144.933548 140.421875,143.943192 137.365051,143.923019 
	C134.259735,143.902542 131.157196,143.459076 128.053452,143.200851 
z"/>
<path fill="#E2FEC4" opacity="1.000000" stroke="none" 
	d="
M142.847778,85.602722 
	C141.236908,85.642029 139.680420,85.052879 138.121780,85.047073 
	C120.710960,84.982231 103.299805,85.007408 85.417618,85.079659 
	C84.624123,85.044960 84.349228,84.866013 84.055191,84.376907 
	C103.257782,84.082512 122.526985,84.025345 142.236450,83.896118 
	C142.751541,84.297768 142.826355,84.771484 142.847778,85.602722 
z"/>
<path fill="#1252A1" opacity="1.000000" stroke="none" 
	d="
M83.498474,97.308281 
	C83.806305,111.689720 83.896080,126.378983 84.048248,141.534027 
	C84.067345,142.171539 84.024033,142.343262 83.693260,142.764023 
	C83.405807,143.013046 82.950035,143.011963 82.950027,143.011963 
	C82.688583,139.847961 82.242607,136.686432 82.200104,133.519501 
	C82.069954,123.820190 82.018066,114.118042 82.116028,104.418808 
	C82.138962,102.147560 82.873352,99.883484 83.498474,97.308281 
z"/>
<path fill="#0E5880" opacity="1.000000" stroke="none" 
	d="
M82.943115,143.479401 
	C82.950035,143.011963 83.405807,143.013046 83.633270,143.022827 
	C83.797768,156.500519 83.734810,169.968430 83.358444,183.716949 
	C83.030838,182.918259 83.016640,181.838959 82.978958,180.353577 
	C82.949051,167.947281 82.942619,155.947067 82.943115,143.479401 
z"/>
<path fill="#82C341" opacity="1.000000" stroke="none" 
	d="
M127.790268,143.123123 
	C131.157196,143.459076 134.259735,143.902542 137.365051,143.923019 
	C140.421875,143.943192 142.020477,144.933548 141.996796,148.244492 
	C141.920563,158.898209 142.085220,169.555450 141.835770,180.203812 
	C141.805588,181.491470 139.823761,183.820892 138.725616,183.833389 
	C121.584076,184.028107 104.439095,183.924744 87.295006,183.861359 
	C86.827835,183.859634 86.361839,183.537643 85.540192,183.180435 
	C85.175156,182.239761 85.165207,181.483658 85.370377,180.143402 
	C85.463051,178.714600 85.340607,177.869980 85.218170,177.025345 
	C85.205742,166.356857 85.193306,155.688370 85.677887,144.527496 
	C97.546211,144.018646 108.917831,144.040482 120.288528,143.948334 
	C122.202522,143.932816 124.112511,143.424774 126.262405,143.080780 
	C126.500465,143.017227 126.987740,142.943726 126.987740,142.943726 
	C127.167526,142.977631 127.347305,143.011520 127.790268,143.123123 
z"/>
<path fill="#7EB95A" opacity="1.000000" stroke="none" 
	d="
M126.024353,143.144318 
	C124.112511,143.424774 122.202522,143.932816 120.288528,143.948334 
	C108.917831,144.040482 97.546211,144.018646 85.737640,144.069565 
	C85.234612,143.674011 85.168839,143.243988 85.104767,142.487991 
	C85.106476,142.162003 85.556946,142.044205 86.054718,142.425873 
	C99.709778,142.919800 112.867065,143.032059 126.024353,143.144318 
z"/>
<path fill="#7EB95A" opacity="1.000000" stroke="none" 
	d="
M85.154366,177.391266 
	C85.340607,177.869980 85.463051,178.714600 85.399689,179.766327 
	C85.172775,179.234665 85.131668,178.495911 85.154366,177.391266 
z"/>
<path fill="#FFFFFF" opacity="1.000000" stroke="none" 
	d="
M126.262405,143.080780 
	C112.867065,143.032059 99.709778,142.919800 86.280563,142.482391 
	C99.547554,142.154785 113.086472,142.152313 126.806564,142.546783 
	C126.987740,142.943726 126.500465,143.017227 126.262405,143.080780 
z"/>
</svg>